# xmcd
#
# Track frame offsets:
#	150
#	10660
#	22277
#	32447
#	41942
#	52037
#	62650
#	72932
#	83262
#	95697
#	105362
#	119345
#	130930
#	142672
#	155175
#	166647
#	177060
#	189392
#	213907
#	227105
#
# Disc length: 3303 seconds
#
# Revision: 1
# Processed by: cddbd v1.5.1PL0 Copyright (c) Steve Scherf et al.
# Submitted via: EasyCDDAExtractor 7.0.0.1
#
DISCID=030ce514
DTITLE=The Shadows - Complete Singles As and Bs 1959-1980 CD3
DYEAR=2004
DGENRE=Instrumental
TTITLE0=The War Lord
TTITLE1=I Wish I Could Shimmy Like My Sister Arthur
TTITLE2=I Met A Girl
TTITLE3=Late Night Set
TTITLE4=A Place In The Sun
TTITLE5=Will You Be There
TTITLE6=The Dreams I Dream
TTITLE7=Scotch On The Socks
TTITLE8=Maroc 7
TTITLE9=Bombay Duck
TTITLE10=Tomorrow's Canelled
TTITLE11=Somewhere
TTITLE12=Midnight Cowboy(Hank Marvin)
TTITLE13=Running Out Of World
TTITLE14=Dear Old Mrs Bell
TTITLE15=Trying To Forget The One You Love
TTITLE16=London's Not Too Far(Hank Marvin)
TTITLE17=Slaughter On 10th Avenue
TTITLE18=Turn Around And Touch Me
TTITLE19=Jungle Jum
EXTD=
EXTT0=
EXTT1=
EXTT2=
EXTT3=
EXTT4=
EXTT5=
EXTT6=
EXTT7=
EXTT8=
EXTT9=
EXTT10=
EXTT11=
EXTT12=
EXTT13=
EXTT14=
EXTT15=
EXTT16=
EXTT17=
EXTT18=
EXTT19=
PLAYORDER=
